<?xml version="1.0" encoding="UTF-8"?>
<svg version="1.1" xmlns="http://www.w3.org/2000/svg" width="512" height="512">
<path d="M0 0 C8.52168116 2.89415587 12.92410274 14.46707816 16.75 22 C17.34417725 23.15910889 17.93835449 24.31821777 18.55053711 25.51245117 C30.62885412 49.261551 41.13543128 73.80029489 51.65332031 98.26855469 C54.38680024 104.62507463 57.13293681 110.97603926 59.89324951 117.32095337 C60.49631035 118.70948284 61.09764781 120.09876235 61.69708252 121.48886108 C63.05341866 124.63396115 64.43006155 127.76255245 65.85546875 130.87744141 C67.3125 134.125 67.3125 134.125 68.30078125 136.93115234 C69.38519806 139.61249172 70.2380679 141.09960431 72.3125 143.125 C75.46498242 144.18554118 75.46498242 144.18554118 79.1184082 144.75756836 C79.78483998 144.87847399 80.45127176 144.99937962 81.13789845 145.12394905 C87.87314093 146.3062683 94.6474595 147.0860181 101.44921875 147.7734375 C103.44588024 147.9842666 105.44254143 148.19509844 107.43918991 148.40605068 C109.53009354 148.62568378 111.62131953 148.84195444 113.712677 149.05722046 C118.06118144 149.50513238 122.40848686 149.96399572 126.75561523 150.42504883 C128.2215711 150.58041535 129.68752874 150.73576509 131.15348816 150.89109802 C131.8776763 150.96783689 132.60186443 151.04457577 133.34799767 151.12364006 C136.25377061 151.43108944 139.15971417 151.73690885 142.06565571 152.0427599 C193.1610654 157.42248917 193.1610654 157.42248917 210.5625 160.25 C211.47330322 160.39655029 212.38410645 160.54310059 213.32250977 160.6940918 C226.12287108 162.93537108 226.12287108 162.93537108 230.3125 167.125 C229.5597587 178.93717026 215.82146526 188.89351935 207.90380859 196.73950195 C205.81156964 198.81342221 203.72750653 200.89529546 201.64453125 202.97851562 C200.29474205 204.32338977 198.94449698 205.66780657 197.59375 207.01171875 C196.98204956 207.62230637 196.37034912 208.23289398 195.7401123 208.86198425 C191.97486223 212.58680849 188.08873293 216.12376529 184.08331299 219.58876038 C182.14066034 221.27407666 180.25070073 223.00573842 178.3828125 224.7734375 C177.73795898 225.38155273 177.09310547 225.98966797 176.42871094 226.61621094 C175.77161133 227.23786133 175.11451172 227.85951172 174.4375 228.5 C169.25912532 233.3772786 164.0504089 238.20902068 158.7421875 242.9453125 C155.86856865 245.52325352 153.02786744 248.13555583 150.1875 250.75 C146.95045153 253.7273135 143.7011189 256.68453186 140.375 259.5625 C136.17497457 263.19900001 132.11414409 266.98302742 128.05493164 270.77514648 C127.52891357 271.26442627 127.00289551 271.75370605 126.4609375 272.2578125 C125.94499023 272.74411133 125.42904297 273.23041016 124.89746094 273.73144531 C123.3125 275.125 123.3125 275.125 121.57910156 276.32324219 C119.6474964 277.60546123 119.6474964 277.60546123 117.3125 280.125 C116.90719626 285.7848718 117.6539463 290.83057657 118.89453125 296.3359375 C119.06435516 297.12059387 119.23417908 297.90525024 119.40914917 298.71368408 C119.97334131 301.31088345 120.54924608 303.90534147 121.125 306.5 C121.52850484 308.34928222 121.93123781 310.19873299 122.33325195 312.04833984 C124.34112142 321.26285095 126.38771972 330.4687836 128.43382263 339.67486572 C129.62448109 345.03281606 130.81308638 350.39121888 132 355.75 C132.23415619 356.8066687 132.46831238 357.8633374 132.70956421 358.95202637 C144.43782593 411.98036044 144.43782593 411.98036044 144.5625 428.375 C144.5934375 429.41527344 144.5934375 429.41527344 144.625 430.4765625 C144.64904986 433.61506898 144.49238955 435.79520249 142.9765625 438.57421875 C141.3125 440.125 141.3125 440.125 138.4375 440.6875 C118.01068642 439.21643318 96.34047095 422.11082247 79.39910889 411.68470764 C78.80978577 411.32211349 78.22046265 410.95951935 77.61328125 410.5859375 C76.72470428 410.03920631 76.72470428 410.03920631 75.81817627 409.48143005 C67.73807496 404.525376 59.53749372 399.7730448 51.34326172 395.0090332 C44.63868962 391.10340584 38.00310357 387.10540452 31.40405273 383.02416992 C26.83099873 380.21489983 22.21066819 377.49521734 17.5625 374.8125 C16.69496094 374.30138672 15.82742188 373.79027344 14.93359375 373.26367188 C12.42248043 371.81611105 9.89225829 370.44596519 7.3125 369.125 C6.56009033 368.73803955 5.80768066 368.3510791 5.0324707 367.95239258 C0.60125702 366.04800076 -2.10195562 365.87938661 -6.61328125 367.67578125 C-8.42546741 368.56320332 -10.22040134 369.48641367 -12 370.4375 C-12.98637451 370.93733398 -13.97274902 371.43716797 -14.98901367 371.95214844 C-26.5984349 377.92813078 -37.89759952 384.49193793 -49.17089844 391.07421875 C-53.71704658 393.72841739 -58.27924818 396.3546648 -62.84057617 398.98266602 C-66.08108832 400.84970011 -69.31997415 402.71952914 -72.55859375 404.58984375 C-80.78364862 409.33650679 -89.01811641 414.06618018 -97.27636719 418.75488281 C-98.86159945 419.65568511 -100.44562241 420.55861945 -102.02832031 421.46386719 C-110.51776354 426.31446087 -119.08973589 430.95462179 -127.875 435.25 C-128.65311035 435.64082764 -129.4312207 436.03165527 -130.23291016 436.43432617 C-134.86967937 438.64895513 -138.43446038 439.75242786 -143.6875 439.125 C-146.18369891 436.62880109 -145.95552075 435.10128337 -145.98733807 431.68997478 C-145.97967324 430.95543984 -145.97200842 430.2209049 -145.96411133 429.46411133 C-145.9587502 428.70094258 -145.95338907 427.93777384 -145.94786549 427.15147877 C-145.8092723 419.53273909 -144.69134435 412.17502681 -143.26171875 404.69921875 C-142.99412734 403.2443505 -142.726944 401.78940716 -142.46012878 400.33439636 C-139.1149035 382.35111896 -135.09637458 364.50132348 -131.10626221 346.65264893 C-129.68399111 340.28299928 -128.27354178 333.91071866 -126.86174011 327.53874207 C-126.11680344 324.17666195 -125.36875702 320.81530087 -124.61787415 317.45454407 C-118.23643641 297.28226494 -118.23643641 297.28226494 -119.9765625 278.05078125 C-123.44248821 273.89641825 -127.53421632 270.39753337 -131.65234375 266.90625 C-133.76118528 265.0605077 -135.72348542 263.12360583 -137.6875 261.125 C-140.79383186 257.97660949 -144.01223292 255.04767579 -147.36328125 252.1640625 C-150.31160422 249.57746655 -153.18664606 246.91663286 -156.0625 244.25 C-160.72673835 239.92732453 -165.42444337 235.64683195 -170.16015625 231.40234375 C-173.53827047 228.35838611 -176.88556004 225.28123667 -180.23339844 222.20410156 C-183.30335368 219.38523531 -186.392655 216.59004387 -189.5 213.8125 C-199.68459427 204.64798433 -209.64285218 195.26947969 -219.375 185.625 C-220.14134766 184.87162354 -220.90769531 184.11824707 -221.69726562 183.34204102 C-231.38439061 173.67111885 -231.38439061 173.67111885 -232 168.5 C-229.79654708 164.51279949 -225.87326496 163.54874441 -221.6875 162.125 C-217.06828392 161.06116027 -212.40627181 160.38034217 -207.71484375 159.7265625 C-206.28407584 159.51839949 -204.85332594 159.31011263 -203.42259216 159.10171509 C-183.1796506 156.20805832 -162.82919695 154.08846778 -142.50524902 151.85736084 C-133.86003286 150.90829007 -125.21548997 149.953374 -116.5719738 148.98894119 C-113.60495298 148.65965198 -110.63731604 148.33644876 -107.66957092 148.01376343 C-103.19140304 147.52182431 -98.71803868 146.99946144 -94.24739456 146.44326019 C-92.52238367 146.22879734 -90.79662913 146.02024329 -89.07023239 145.81723785 C-86.57344834 145.51584707 -84.08413123 145.17883695 -81.59350586 144.83056641 C-80.85486833 144.74595343 -80.11623079 144.66134045 -79.3552103 144.57416344 C-75.36572004 143.9707561 -73.83355682 143.28771383 -71.10067749 140.24316406 C-69.71405055 137.88829893 -68.55717134 135.76951535 -67.63671875 133.2109375 C-66.16591791 129.32726457 -64.57378461 125.52531042 -62.89453125 121.7265625 C-60.67058916 116.6859735 -58.48014523 111.63309221 -56.31640625 106.56640625 C-10.94156367 0.50890994 -10.94156367 0.50890994 0 0 Z " fill="#F8BF00" transform="translate(256.6875,35.875)"/>
<path d="M0 0 C8.52168116 2.89415587 12.92410274 14.46707816 16.75 22 C17.34417725 23.15910889 17.93835449 24.31821777 18.55053711 25.51245117 C30.62885412 49.261551 41.13543128 73.80029489 51.65332031 98.26855469 C54.38680024 104.62507463 57.13293681 110.97603926 59.89324951 117.32095337 C60.49631035 118.70948284 61.09764781 120.09876235 61.69708252 121.48886108 C63.05341866 124.63396115 64.43006155 127.76255245 65.85546875 130.87744141 C67.3125 134.125 67.3125 134.125 68.30078125 136.93115234 C69.38519806 139.61249172 70.2380679 141.09960431 72.3125 143.125 C75.46498242 144.18554118 75.46498242 144.18554118 79.1184082 144.75756836 C79.78483998 144.87847399 80.45127176 144.99937962 81.13789845 145.12394905 C87.87314093 146.3062683 94.6474595 147.0860181 101.44921875 147.7734375 C103.44588024 147.9842666 105.44254143 148.19509844 107.43918991 148.40605068 C109.53009354 148.62568378 111.62131953 148.84195444 113.712677 149.05722046 C118.06118144 149.50513238 122.40848686 149.96399572 126.75561523 150.42504883 C128.2215711 150.58041535 129.68752874 150.73576509 131.15348816 150.89109802 C131.8776763 150.96783689 132.60186443 151.04457577 133.34799767 151.12364006 C136.25377061 151.43108944 139.15971417 151.73690885 142.06565571 152.0427599 C193.1610654 157.42248917 193.1610654 157.42248917 210.5625 160.25 C211.47330322 160.39655029 212.38410645 160.54310059 213.32250977 160.6940918 C226.12287108 162.93537108 226.12287108 162.93537108 230.3125 167.125 C229.5597587 178.93717026 215.82146526 188.89351935 207.90380859 196.73950195 C205.81156964 198.81342221 203.72750653 200.89529546 201.64453125 202.97851562 C200.29474205 204.32338977 198.94449698 205.66780657 197.59375 207.01171875 C196.98204956 207.62230637 196.37034912 208.23289398 195.7401123 208.86198425 C191.97486223 212.58680849 188.08873293 216.12376529 184.08331299 219.58876038 C182.14066034 221.27407666 180.25070073 223.00573842 178.3828125 224.7734375 C177.73795898 225.38155273 177.09310547 225.98966797 176.42871094 226.61621094 C175.77161133 227.23786133 175.11451172 227.85951172 174.4375 228.5 C169.25912532 233.3772786 164.0504089 238.20902068 158.7421875 242.9453125 C155.86856865 245.52325352 153.02786744 248.13555583 150.1875 250.75 C146.95045153 253.7273135 143.7011189 256.68453186 140.375 259.5625 C136.17497457 263.19900001 132.11414409 266.98302742 128.05493164 270.77514648 C127.52891357 271.26442627 127.00289551 271.75370605 126.4609375 272.2578125 C125.94499023 272.74411133 125.42904297 273.23041016 124.89746094 273.73144531 C123.3125 275.125 123.3125 275.125 121.57910156 276.32324219 C119.6474964 277.60546123 119.6474964 277.60546123 117.3125 280.125 C116.90719626 285.7848718 117.6539463 290.83057657 118.89453125 296.3359375 C119.06435516 297.12059387 119.23417908 297.90525024 119.40914917 298.71368408 C119.97334131 301.31088345 120.54924608 303.90534147 121.125 306.5 C121.52850484 308.34928222 121.93123781 310.19873299 122.33325195 312.04833984 C124.34112142 321.26285095 126.38771972 330.4687836 128.43382263 339.67486572 C129.62448109 345.03281606 130.81308638 350.39121888 132 355.75 C132.23415619 356.8066687 132.46831238 357.8633374 132.70956421 358.95202637 C144.43782593 411.98036044 144.43782593 411.98036044 144.5625 428.375 C144.5934375 429.41527344 144.5934375 429.41527344 144.625 430.4765625 C144.64904986 433.61506898 144.49238955 435.79520249 142.9765625 438.57421875 C141.3125 440.125 141.3125 440.125 138.4375 440.6875 C118.01068642 439.21643318 96.34047095 422.11082247 79.39910889 411.68470764 C78.80978577 411.32211349 78.22046265 410.95951935 77.61328125 410.5859375 C76.72470428 410.03920631 76.72470428 410.03920631 75.81817627 409.48143005 C67.73807496 404.525376 59.53749372 399.7730448 51.34326172 395.0090332 C44.63868962 391.10340584 38.00310357 387.10540452 31.40405273 383.02416992 C26.83099873 380.21489983 22.21066819 377.49521734 17.5625 374.8125 C16.69496094 374.30138672 15.82742188 373.79027344 14.93359375 373.26367188 C12.42248043 371.81611105 9.89225829 370.44596519 7.3125 369.125 C6.56009033 368.73803955 5.80768066 368.3510791 5.0324707 367.95239258 C0.60125702 366.04800076 -2.10195562 365.87938661 -6.61328125 367.67578125 C-8.42546741 368.56320332 -10.22040134 369.48641367 -12 370.4375 C-12.98637451 370.93733398 -13.97274902 371.43716797 -14.98901367 371.95214844 C-26.5984349 377.92813078 -37.89759952 384.49193793 -49.17089844 391.07421875 C-53.71704658 393.72841739 -58.27924818 396.3546648 -62.84057617 398.98266602 C-66.08108832 400.84970011 -69.31997415 402.71952914 -72.55859375 404.58984375 C-80.78364862 409.33650679 -89.01811641 414.06618018 -97.27636719 418.75488281 C-98.86159945 419.65568511 -100.44562241 420.55861945 -102.02832031 421.46386719 C-110.51776354 426.31446087 -119.08973589 430.95462179 -127.875 435.25 C-128.65311035 435.64082764 -129.4312207 436.03165527 -130.23291016 436.43432617 C-134.86967937 438.64895513 -138.43446038 439.75242786 -143.6875 439.125 C-146.18369891 436.62880109 -145.95552075 435.10128337 -145.98733807 431.68997478 C-145.97967324 430.95543984 -145.97200842 430.2209049 -145.96411133 429.46411133 C-145.9587502 428.70094258 -145.95338907 427.93777384 -145.94786549 427.15147877 C-145.8092723 419.53273909 -144.69134435 412.17502681 -143.26171875 404.69921875 C-142.99412734 403.2443505 -142.726944 401.78940716 -142.46012878 400.33439636 C-139.1149035 382.35111896 -135.09637458 364.50132348 -131.10626221 346.65264893 C-129.68399111 340.28299928 -128.27354178 333.91071866 -126.86174011 327.53874207 C-126.11680344 324.17666195 -125.36875702 320.81530087 -124.61787415 317.45454407 C-118.23643641 297.28226494 -118.23643641 297.28226494 -119.9765625 278.05078125 C-123.44248821 273.89641825 -127.53421632 270.39753337 -131.65234375 266.90625 C-133.76118528 265.0605077 -135.72348542 263.12360583 -137.6875 261.125 C-140.79383186 257.97660949 -144.01223292 255.04767579 -147.36328125 252.1640625 C-150.31160422 249.57746655 -153.18664606 246.91663286 -156.0625 244.25 C-160.72673835 239.92732453 -165.42444337 235.64683195 -170.16015625 231.40234375 C-173.53827047 228.35838611 -176.88556004 225.28123667 -180.23339844 222.20410156 C-183.30335368 219.38523531 -186.392655 216.59004387 -189.5 213.8125 C-199.68459427 204.64798433 -209.64285218 195.26947969 -219.375 185.625 C-220.14134766 184.87162354 -220.90769531 184.11824707 -221.69726562 183.34204102 C-231.38439061 173.67111885 -231.38439061 173.67111885 -232 168.5 C-229.79654708 164.51279949 -225.87326496 163.54874441 -221.6875 162.125 C-217.06828392 161.06116027 -212.40627181 160.38034217 -207.71484375 159.7265625 C-206.28407584 159.51839949 -204.85332594 159.31011263 -203.42259216 159.10171509 C-183.1796506 156.20805832 -162.82919695 154.08846778 -142.50524902 151.85736084 C-133.86003286 150.90829007 -125.21548997 149.953374 -116.5719738 148.98894119 C-113.60495298 148.65965198 -110.63731604 148.33644876 -107.66957092 148.01376343 C-103.19140304 147.52182431 -98.71803868 146.99946144 -94.24739456 146.44326019 C-92.52238367 146.22879734 -90.79662913 146.02024329 -89.07023239 145.81723785 C-86.57344834 145.51584707 -84.08413123 145.17883695 -81.59350586 144.83056641 C-80.85486833 144.74595343 -80.11623079 144.66134045 -79.3552103 144.57416344 C-75.36572004 143.9707561 -73.83355682 143.28771383 -71.10067749 140.24316406 C-69.71405055 137.88829893 -68.55717134 135.76951535 -67.63671875 133.2109375 C-66.16591791 129.32726457 -64.57378461 125.52531042 -62.89453125 121.7265625 C-60.67058916 116.6859735 -58.48014523 111.63309221 -56.31640625 106.56640625 C-10.94156367 0.50890994 -10.94156367 0.50890994 0 0 Z M-0.6875 5.125 C-6.2175524 10.97296767 -9.7362425 17.28834761 -13.375 24.4375 C-13.68886658 25.04892853 -14.00273315 25.66035706 -14.32611084 26.29031372 C-27.02797812 51.08575761 -38.02124298 76.77085761 -49.02319336 102.35449219 C-53.05314078 111.71378383 -57.18896849 121.02211913 -61.375 130.3125 C-61.6799942 130.99178558 -61.9849884 131.67107117 -62.29922485 132.37094116 C-63.15874116 134.28381292 -64.02203502 136.19492825 -64.88671875 138.10546875 C-65.38002686 139.19754639 -65.87333496 140.28962402 -66.3815918 141.41479492 C-67.6875 144.125 -67.6875 144.125 -69.6875 147.125 C-72.58045758 147.95728655 -75.33011662 148.59230908 -78.28027344 149.1328125 C-79.61229105 149.38661179 -79.61229105 149.38661179 -80.97121811 149.64553833 C-90.88384393 151.45937752 -100.86811604 152.5857938 -110.8844986 153.64801025 C-114.30454803 154.01075742 -117.72321959 154.38476472 -121.14178467 154.76123047 C-128.40596042 155.55908476 -135.67166212 156.34245274 -142.9375 157.125 C-151.36108079 158.03417183 -159.78393252 158.94961921 -168.20574188 159.87506104 C-171.52574567 160.2374602 -174.84656356 160.59148235 -178.1675415 160.94482422 C-188.80457649 162.09618286 -199.38051614 163.45071865 -209.94042969 165.1796875 C-210.94674061 165.34252228 -211.95305153 165.50535706 -212.98985672 165.67312622 C-213.92702908 165.83239594 -214.86420143 165.99166565 -215.82977295 166.15576172 C-216.64964062 166.29456757 -217.46950829 166.43337341 -218.31422043 166.5763855 C-220.90719885 167.17578625 -223.24364901 168.07973631 -225.6875 169.125 C-221.04429517 179.71731103 -209.51082203 188.96136702 -200.90234375 196.43359375 C-196.59474094 200.17518996 -192.4491847 204.07140279 -188.3125 208 C-182.95736382 213.06338517 -177.57624602 218.08409735 -172.07421875 222.98828125 C-169.25698251 225.51042237 -166.47108557 228.06589007 -163.6875 230.625 C-160.03832237 233.97803261 -156.37580286 237.31498462 -152.6875 240.625 C-148.01840101 244.81674702 -143.38897207 249.05062529 -138.76953125 253.296875 C-136.71049854 255.18906522 -134.64511008 257.0739227 -132.57421875 258.953125 C-116.2398859 273.79642115 -116.2398859 273.79642115 -112.6875 279.125 C-112.31662594 288.66304331 -114.97716318 298.39819439 -116.9375 307.6875 C-117.28253766 309.34923617 -117.62733725 311.01102179 -117.97192383 312.67285156 C-120.21356041 323.41772939 -122.56156451 334.13871563 -124.93359375 344.85546875 C-125.21641205 346.13390152 -125.49923035 347.41233429 -125.7906189 348.72950745 C-127.19512213 355.07108621 -128.60678416 361.41094685 -130.03027344 367.74829102 C-137.75572252 398.36848055 -137.75572252 398.36848055 -140.75 429.625 C-140.72916667 431.125 -140.70833333 432.625 -140.6875 434.125 C-133.37564373 431.92463788 -126.86858218 428.87389633 -120.125 425.3125 C-118.48688354 424.45362183 -118.48688354 424.45362183 -116.81567383 423.57739258 C-107.35879092 418.57240822 -98.1189413 413.23343798 -88.91015625 407.7890625 C-82.25039207 403.85253895 -75.53507533 400.01527332 -68.8125 396.1875 C-61.750078 392.16446092 -54.69120656 388.1362876 -47.66015625 384.05859375 C-5.68342212 359.71507562 -5.68342212 359.71507562 5.3125 362.125 C8.24171385 363.19665511 10.90400142 364.60740932 13.625 366.125 C14.42784424 366.56013916 15.23068848 366.99527832 16.05786133 367.44360352 C25.78582947 372.80104845 35.22326661 378.66315372 44.6875 384.46875 C56.06930372 391.44981044 67.57421179 398.22572713 79.0677948 405.02052307 C82.47390354 407.03449813 85.87517264 409.05613285 89.26953125 411.08984375 C97.28081637 415.8786812 105.39824282 420.47727266 113.5625 425 C114.53316406 425.54833496 115.50382812 426.09666992 116.50390625 426.66162109 C123.53596729 430.51188862 130.58190412 433.02696162 138.3125 435.125 C147.76846247 416.21307506 130.0916015 371.48812643 125.625 351.5625 C125.46017876 350.82714649 125.29535751 350.09179298 125.12554169 349.33415604 C123.4438881 341.83618067 121.75489924 334.33991596 120.05076218 326.84701729 C110.69485725 285.69706045 110.69485725 285.69706045 111.3125 279.125 C113.09207349 276.94798843 114.77212663 275.14675781 116.8125 273.25 C117.36421875 272.71898682 117.9159375 272.18797363 118.484375 271.64086914 C121.96401472 268.31519129 125.52366199 265.08673905 129.1875 261.96484375 C131.9480535 259.57473218 134.62851409 257.10016226 137.3125 254.625 C140.59081532 251.60548572 143.87831703 248.60297216 147.25 245.6875 C151.38238761 242.10495191 155.3834279 238.38532872 159.39428711 234.66821289 C162.67752183 231.62758406 165.97917768 228.61087504 169.3125 225.625 C175.37150015 220.18843325 181.35320806 214.67034375 187.3125 209.125 C188.31772705 208.18962402 188.31772705 208.18962402 189.34326172 207.23535156 C208.75797547 190.82303648 208.75797547 190.82303648 224.3125 171.125 C223.9825 170.135 223.6525 169.145 223.3125 168.125 C208.79296983 164.9507303 194.33010166 162.86619825 179.5625 161.25 C177.31397141 160.99692029 175.06551927 160.74316061 172.81713867 160.48876953 C160.66622665 159.1218739 148.5084111 157.82287339 136.34765625 156.546875 C135.11266388 156.4167099 133.87767151 156.2865448 132.60525513 156.1524353 C126.66585444 155.52676513 120.72594589 154.90798077 114.78417969 154.30517578 C103.63066319 153.1570993 92.5098434 151.84113637 81.41796875 150.1953125 C80.36047928 150.04923553 79.30298981 149.90315857 78.2134552 149.75265503 C71.0914304 148.64087465 71.0914304 148.64087465 67.86035156 146.50097656 C65.68072577 143.1552166 64.03893202 139.69360816 62.44140625 136.0390625 C62.08285553 135.23840866 61.72430481 134.43775482 61.35488892 133.61283875 C60.18586952 130.99581977 59.03028452 128.37310762 57.875 125.75 C57.06421447 123.92703533 56.25276651 122.10436515 55.44067383 120.28198242 C50.19866959 108.49535598 45.04745586 96.66948808 39.94238281 84.82299805 C34.20878713 71.52529915 28.31928207 58.3016085 22.3125 45.125 C21.85214355 44.1148584 21.39178711 43.1047168 20.91748047 42.06396484 C16.77413595 33.02601843 12.52073074 24.11540484 7.4375 15.5625 C7.08010742 14.96066895 6.72271484 14.35883789 6.35449219 13.73876953 C4.3295495 10.44895472 2.15930499 7.73563507 -0.6875 5.125 Z " fill="#CDA300" transform="translate(256.6875,35.875)"/>
<path d="M0 0 C23.58476423 -0.57015702 46.467841 0.67757831 69.85693359 3.72143555 C71.92887994 3.99075553 74.00142244 4.2548896 76.07421875 4.51757812 C88.75569219 6.13933125 101.39534233 7.98500387 114 10.125 C114.94407715 10.28355469 115.8881543 10.44210938 116.86083984 10.60546875 C121.12794772 11.35704816 125.0477629 12.13915503 129 14 C129.14150632 20.50929073 126.26262269 23.77203616 121.8671875 28.37109375 C116.63793531 33.16576231 110.93971674 37.13883182 105 41 C104.23300781 41.50015625 103.46601563 42.0003125 102.67578125 42.515625 C96.78186115 45.91090554 90.68911373 45.79743831 84.18994141 44.39257812 C81.06822136 43.49871428 78.00698781 42.49706999 74.9375 41.4375 C73.78789795 41.04691406 72.6382959 40.65632813 71.45385742 40.25390625 C50.67518762 32.94517422 29.67178948 23.71750054 11 12 C9.453125 11.04867187 9.453125 11.04867187 7.875 10.078125 C1.16744417 5.71821371 1.16744417 5.71821371 0.39233398 2.39355469 C0.26286377 1.60368164 0.13339355 0.81380859 0 0 Z " fill="#FDCF47" transform="translate(331,194)"/>
<path d="M0 0 C0.76129715 0.00141495 1.5225943 0.0028299 2.30696106 0.00428772 C4.69036131 0.0097948 7.07366039 0.02232811 9.45703125 0.03515625 C11.09309758 0.04018331 12.72916542 0.04474408 14.36523438 0.04882812 C18.33337111 0.05973348 22.30143416 0.07693095 26.26953125 0.09765625 C26.26953125 4.09765625 26.26953125 4.09765625 24.71606445 5.78442383 C18.57628487 10.35888205 12.21222373 14.18782024 5.45703125 17.78515625 C4.34134766 18.38312012 3.22566406 18.98108398 2.07617188 19.59716797 C-10.52021661 26.22270027 -23.5503774 31.73728072 -36.73046875 37.09765625 C-38.09824463 37.66323242 -38.09824463 37.66323242 -39.49365234 38.24023438 C-62.81595581 47.78338986 -62.81595581 47.78338986 -72.96875 43.83984375 C-81.10765936 40.2170095 -87.44347585 35.44452527 -93.73046875 29.09765625 C-94.67921875 28.19015625 -95.62796875 27.28265625 -96.60546875 26.34765625 C-102.65543267 19.94181209 -102.65543267 19.94181209 -102.98046875 16.28515625 C-102.89796875 15.56328125 -102.81546875 14.84140625 -102.73046875 14.09765625 C-97.10505432 11.67416656 -91.43477234 10.83990247 -85.41796875 9.84765625 C-84.14719482 9.63657227 -82.8764209 9.42548828 -81.56713867 9.20800781 C-68.60248458 7.10373782 -55.57526949 5.46908029 -42.54296875 3.84765625 C-40.9703981 3.65181946 -40.9703981 3.65181946 -39.36605835 3.45202637 C-36.32775843 3.07546041 -33.28902867 2.70266682 -30.25 2.33203125 C-29.35193634 2.22181641 -28.45387268 2.11160156 -27.52859497 1.99804688 C-18.35327028 0.89305234 -9.24976257 -0.06735344 0 0 Z " fill="#FDCE47" transform="translate(151.73046875,193.90234375)"/>
<path d="M0 0 C3.07497064 0.23732995 4.62514458 0.65714443 6.921875 2.7578125 C22.45902818 22.87643393 34.13311084 46.68072926 44 70 C44.60908203 71.40765625 44.60908203 71.40765625 45.23046875 72.84375 C46.22324277 75.62553304 46.13620181 78.07166109 46 81 C36.47269096 77.71590065 29.23511088 69.39542534 22.33984375 62.34765625 C19.65010053 59.64893225 16.84990109 57.13938979 13.9453125 54.67578125 C12.55546325 53.47850148 11.19922259 52.24175472 9.8671875 50.98046875 C9.16851562 50.32691406 8.46984375 49.67335937 7.75 49 C7.12609375 48.401875 6.5021875 47.80375 5.859375 47.1875 C4.08960539 45.78803507 4.08960539 45.78803507 2.04150391 46.18969727 C-0.60441905 47.23990275 -1.1540774 48.30468511 -2.5234375 50.77734375 C-2.97992676 51.58800293 -3.43641602 52.39866211 -3.90673828 53.23388672 C-4.39126465 54.1260791 -4.87579102 55.01827148 -5.375 55.9375 C-5.89175293 56.86320801 -6.40850586 57.78891602 -6.94091797 58.74267578 C-10.48478744 65.12544577 -13.90827256 71.57183376 -17.33666992 78.01708984 C-26.47094141 95.16832125 -26.47094141 95.16832125 -31.5625 102.8125 C-31.9435791 103.38597168 -32.3246582 103.95944336 -32.71728516 104.55029297 C-38.58463902 113.06069295 -38.58463902 113.06069295 -43.25 114.875 C-43.8275 114.91625 -44.405 114.9575 -45 115 C-46 114 -46 114 -46.01074219 112.14331055 C-45.38510417 104.99346785 -43.56792462 98.58665607 -41.25 91.8125 C-40.85369385 90.64396484 -40.4573877 89.47542969 -40.04907227 88.27148438 C-32.81356334 67.40847907 -23.67519247 47.28238651 -14.5625 27.1875 C-14.06023392 26.07459595 -14.06023392 26.07459595 -13.54782104 24.93920898 C-4.13434408 4.13434408 -4.13434408 4.13434408 0 0 Z " fill="#FED847" transform="translate(252,58)"/>
<path d="M0 0 C5.81087144 0.95258233 7.36482728 3.2884209 10.84765625 7.90625 C24.19269508 27.08822958 34.91368021 48.52551621 44 70 C44.60908203 71.40765625 44.60908203 71.40765625 45.23046875 72.84375 C46.22324277 75.62553304 46.13620181 78.07166109 46 81 C40.5678582 79.47221012 36.5443122 76.29523992 33 72 C30.73684106 67.46181128 29.01765668 62.80803458 27.35369873 58.02276611 C26.01845428 54.18719583 24.60464005 50.38060323 23.19921875 46.5703125 C22.92615906 45.82409637 22.65309937 45.07788025 22.37176514 44.30905151 C20.14984311 38.27975524 17.66485789 32.41564907 14.875 26.625 C14.52123291 25.88475586 14.16746582 25.14451172 13.80297852 24.38183594 C11.36933879 19.37790079 11.36933879 19.37790079 8 15 C7.01 15 6.02 15 5 15 C-5.32147314 33.33432843 -14.68492034 52.12587089 -24.04864502 70.95996094 C-26.07756622 75.03862548 -28.11127937 79.11489937 -30.14453125 83.19140625 C-34.10091729 91.12533673 -38.05218674 99.06180035 -42 107 C-42.66 107 -43.32 107 -44 107 C-43.62008518 99.49820598 -41.99313184 93.07999934 -39.375 86.0625 C-38.79153809 84.47369019 -38.79153809 84.47369019 -38.19628906 82.8527832 C-30.61408712 62.61096039 -21.7679781 42.81214572 -12.76062012 23.17007446 C-11.96615408 21.43748931 -11.17682724 19.70255045 -10.38769531 17.9675293 C-7.41656835 11.57843428 -4.11779107 5.7217349 0 0 Z " fill="#FEF85F" transform="translate(252,58)"/>
<path d="M0 0 C23.58476423 -0.57015702 46.467841 0.67757831 69.85693359 3.72143555 C71.92887994 3.99075553 74.00142244 4.2548896 76.07421875 4.51757812 C88.75569219 6.13933125 101.39534233 7.98500387 114 10.125 C114.94407715 10.28355469 115.8881543 10.44210938 116.86083984 10.60546875 C121.12794772 11.35704816 125.0477629 12.13915503 129 14 C129.14144733 20.50657705 126.26453987 23.76661206 121.875 28.3671875 C114.46604784 35.15201597 104.08423898 44.6115232 93.625 44.1875 C92.75101562 44.16042969 91.87703125 44.13335937 90.9765625 44.10546875 C90.32429688 44.07066406 89.67203125 44.03585938 89 44 C92.74208432 39.76848775 97.36190003 36.98038243 102.0625 33.9375 C103.68051522 32.88738893 105.29648569 31.83411896 106.91015625 30.77734375 C107.62308838 30.31577881 108.33602051 29.85421387 109.07055664 29.37866211 C110.92208783 28.05567127 112.44591184 26.65653541 114 25 C111.85709878 24.3855145 109.71040378 23.78426411 107.5625 23.1875 C105.77005859 22.68283203 105.77005859 22.68283203 103.94140625 22.16796875 C99.73981157 21.10455942 95.49502461 20.336136 91.2277832 19.59130859 C90.4807205 19.460318 89.7336578 19.32932741 88.96395683 19.19436741 C81.84602548 17.95621656 74.7141479 16.81570144 67.57509232 15.7067852 C65.33573116 15.35892587 63.09671363 15.00891928 60.85775757 14.65846252 C56.11379277 13.91629277 51.36941492 13.1767859 46.625 12.4375 C41.09458196 11.57544577 35.56434622 10.71224246 30.03443527 9.84694099 C27.85074076 9.50573119 25.6667913 9.16619089 23.4828186 8.82676697 C15.96833416 7.65435535 8.47353555 6.41199911 1 5 C0.67 3.35 0.34 1.7 0 0 Z " fill="#FDED62" transform="translate(331,194)"/>
<path d="M0 0 C0.76129715 0.00141495 1.5225943 0.0028299 2.30696106 0.00428772 C4.69036131 0.0097948 7.07366039 0.02232811 9.45703125 0.03515625 C11.09309758 0.04018331 12.72916542 0.04474408 14.36523438 0.04882812 C18.33337111 0.05973348 22.30143416 0.07693095 26.26953125 0.09765625 C26.26953125 1.41765625 26.26953125 2.73765625 26.26953125 4.09765625 C9.87180962 6.51694112 -6.53099305 8.18289911 -23.04296875 9.59765625 C-36.85690462 10.78667472 -50.65621625 12.01413913 -64.42578125 13.6484375 C-65.43953323 13.76767578 -66.45328522 13.88691406 -67.49775696 14.00976562 C-75.02285713 14.92988664 -82.37326546 16.24190372 -89.73046875 18.09765625 C-90.14486012 21.93363225 -90.14486012 21.93363225 -88.39453125 23.78125 C-82.10696397 29.18952147 -75.45162983 34.01359285 -68.67626953 38.79272461 C-67.90911621 39.33550049 -67.14196289 39.87827637 -66.3515625 40.4375 C-65.30633423 41.17021118 -65.30633423 41.17021118 -64.23999023 41.91772461 C-63.74184814 42.30710205 -63.24370605 42.69647949 -62.73046875 43.09765625 C-62.73046875 43.42765625 -62.73046875 43.75765625 -62.73046875 44.09765625 C-73.09781599 45.54266261 -79.56489965 40.85257522 -87.69140625 34.9453125 C-93.41413917 30.48471657 -99.25969589 25.5890676 -102.73046875 19.09765625 C-102.90625 16.33203125 -102.90625 16.33203125 -102.73046875 14.09765625 C-97.10505432 11.67416656 -91.43477234 10.83990247 -85.41796875 9.84765625 C-84.14719482 9.63657227 -82.8764209 9.42548828 -81.56713867 9.20800781 C-68.60248458 7.10373782 -55.57526949 5.46908029 -42.54296875 3.84765625 C-40.9703981 3.65181946 -40.9703981 3.65181946 -39.36605835 3.45202637 C-36.32775843 3.07546041 -33.28902867 2.70266682 -30.25 2.33203125 C-29.35193634 2.22181641 -28.45387268 2.11160156 -27.52859497 1.99804688 C-18.35327028 0.89305234 -9.24976257 -0.06735344 0 0 Z " fill="#FCEB60" transform="translate(151.73046875,193.90234375)"/>
</svg>
